<svg xmlns="http://www.w3.org/2000/svg" xmlns:xlink="http://www.w3.org/1999/xlink" width="50" zoomAndPan="magnify" viewBox="0 0 37.5 37.499999" height="50" preserveAspectRatio="xMidYMid meet" version="1.0"><defs><g/><clipPath id="fc59e34c8b"><path d="M 0 0 L 37.007812 0 L 37.007812 37.007812 L 0 37.007812 Z M 0 0 " clip-rule="nonzero"/></clipPath><clipPath id="5e48ef9294"><path d="M 18.503906 0 C 8.285156 0 0 8.285156 0 18.503906 C 0 28.722656 8.285156 37.007812 18.503906 37.007812 C 28.722656 37.007812 37.007812 28.722656 37.007812 18.503906 C 37.007812 8.285156 28.722656 0 18.503906 0 Z M 18.503906 0 " clip-rule="nonzero"/></clipPath></defs><g clip-path="url(#fc59e34c8b)"><g clip-path="url(#5e48ef9294)"><path fill="#000000" d="M 0 0 L 37.007812 0 L 37.007812 37.007812 L 0 37.007812 Z M 0 0 " fill-opacity="1" fill-rule="nonzero"/></g></g><g fill="#ffffff" fill-opacity="1"><g transform="translate(6.251084, 27.095268)"><g><path d="M 5.234375 -18.6875 C 6.710938 -18.6875 7.773438 -18.320312 8.421875 -17.59375 C 9.078125 -16.863281 9.40625 -15.804688 9.40625 -14.421875 L 9.40625 -12.890625 C 9.40625 -11.859375 9.21875 -11.019531 8.84375 -10.375 C 8.46875 -9.738281 7.878906 -9.296875 7.078125 -9.046875 C 7.929688 -8.796875 8.535156 -8.335938 8.890625 -7.671875 C 9.242188 -7.003906 9.421875 -6.164062 9.421875 -5.15625 L 9.421875 -2.25 C 9.421875 -1.832031 9.4375 -1.429688 9.46875 -1.046875 C 9.507812 -0.671875 9.617188 -0.320312 9.796875 0 L 7.6875 0 C 7.5625 -0.269531 7.472656 -0.554688 7.421875 -0.859375 C 7.367188 -1.171875 7.34375 -1.640625 7.34375 -2.265625 L 7.34375 -5.203125 C 7.34375 -6.253906 7.101562 -6.976562 6.625 -7.375 C 6.15625 -7.78125 5.488281 -7.984375 4.625 -7.984375 L 3.15625 -7.984375 L 3.15625 0 L 1.0625 0 L 1.0625 -18.6875 Z M 4.703125 -9.875 C 5.535156 -9.875 6.179688 -10.046875 6.640625 -10.390625 C 7.109375 -10.742188 7.34375 -11.425781 7.34375 -12.4375 L 7.34375 -14.234375 C 7.34375 -15.085938 7.175781 -15.726562 6.84375 -16.15625 C 6.519531 -16.582031 5.96875 -16.796875 5.1875 -16.796875 L 3.15625 -16.796875 L 3.15625 -9.875 Z M 4.703125 -9.875 "/></g></g></g><g fill="#ffffff" fill-opacity="1"><g transform="translate(16.771915, 27.095268)"><g><path d="M 7.953125 -0.03125 L 5.953125 -0.03125 L 2.859375 -14.90625 L 2.859375 0 L 1.046875 0 L 1.046875 -18.6875 L 3.953125 -18.6875 L 7.015625 -3.765625 L 9.984375 -18.6875 L 12.890625 -18.6875 L 12.890625 0 L 10.921875 0 L 10.921875 -15.03125 Z M 7.953125 -0.03125 "/></g></g></g></svg>